<?xml version="1.0" encoding="UTF-8"?>
<!DOCTYPE svg PUBLIC "-//W3C//DTD SVG 1.1//EN" "http://www.w3.org/Graphics/SVG/1.1/DTD/svg11.dtd">
<!-- Creator: CorelDRAW X7 -->
<svg xmlns="http://www.w3.org/2000/svg" xml:space="preserve" width="67.7332mm" height="50.8mm" version="1.1" style="shape-rendering:geometricPrecision; text-rendering:geometricPrecision; image-rendering:optimizeQuality; fill-rule:evenodd; clip-rule:evenodd"
viewBox="0 0 6773 5080"
 xmlns:xlink="http://www.w3.org/1999/xlink">
 <defs>
  <style type="text/css">
   <![CDATA[
    .fil1 {fill:#03103D}
    .fil2 {fill:#11AEF1}
    .fil0 {fill:white}
    .fil3 {fill:#03103D;fill-rule:nonzero}
   ]]>
  </style>
 </defs>
 <g id="Layer_x0020_1">
  <metadata id="CorelCorpID_0Corel-Layer"/>
  <rect class="fil0" width="6773" height="5080"/>
  <g id="_2180554078592">
   <g>
    <path class="fil1" d="M1990 3345c-85,-6 -152,-77 -152,-163 0,-90 74,-163 163,-163l62 0 63 0 0 -42c0,-7 0,-14 0,-21 11,-118 111,-212 232,-212 121,0 222,94 232,212 1,7 1,14 1,21l0 42 62 0 63 0c90,0 163,73 163,163 0,90 -73,163 -163,163l-63 0 -62 0 -465 0 -63 0 -52 0 -10 0c-3,0 -7,0 -11,0zm-534 -735l0 -171 171 0 0 171 -171 0zm210 0l0 -171 171 0 0 171 -171 0zm0 39l171 0 0 171 -171 0 0 -171zm210 0l171 0 0 171 -171 0 0 -171zm-420 0l171 0 0 171 -171 0 0 -171zm437 -418l0 115 130 0 0 -115 -130 0zm155 0l0 284 -180 0 0 -284 -20 0 -112 0 -277 0 0 -66 368 0 471 -339 24 -17 0 -47 0 -89 65 0 0 89 0 47 23 17 471 339 234 0 0 66 -143 0 -112 0 -118 0 0 727 -2 0c113,12 202,108 202,224 0,64 -28,122 -71,163 -40,39 -95,62 -155,62l-63 0 -62 0 -465 0 -63 0 -52 0c-3,0 -6,0 -10,0 -5,0 -9,0 -14,0 -304,-12 -554,-245 -592,-542l63 0 627 0c40,-96 130,-168 237,-181l0 -453 -274 0zm629 0l0 725 -25 0c-10,-143 -123,-259 -265,-273l0 -452 290 0zm-290 -342l383 276 -383 0 0 -276zm-65 0l0 276 -383 0 383 -276zm330 1067c1,7 1,14 1,21l-1 -21z"/>
    <path class="fil2" d="M1874 3182c0,66 52,123 117,127l11 1 714 0c70,0 128,-58 128,-128 0,-70 -58,-128 -128,-128l-161 0 0 -77 0 -18c-9,-101 -95,-179 -197,-179 -101,0 -187,78 -196,179l-1 18 0 77 -160 0c-70,0 -127,58 -127,128z"/>
   </g>
   <path class="fil3" d="M3080 3395l206 0 0 -235 55 -64 203 299 241 0 -290 -420 276 -322 -237 0 -237 282 -11 0 0 -529 -206 0 0 989zm803 0l705 0 0 -171 -415 0 0 -6 144 -142c203,-185 258,-278 258,-391 0,-171 -140,-292 -352,-292 -208,0 -350,124 -350,318l199 0c-1,-95 59,-153 149,-153 87,0 152,54 152,141 0,79 -48,133 -138,220l-352 326 0 150zm1073 12c120,0 182,-68 211,-130l8 0 0 118 203 0 0 -989 -205 0 0 372 -6 0c-28,-60 -87,-134 -211,-134 -163,0 -301,126 -301,381 0,249 132,382 301,382zm65 -163c-101,0 -156,-90 -156,-219 0,-129 54,-217 156,-217 100,0 156,84 156,217 0,132 -57,219 -156,219z"/>
  </g>
 </g>
</svg>
