<?xml version="1.0" encoding="utf-8"?>
<!-- Generator: Adobe Illustrator 23.0.1, SVG Export Plug-In . SVG Version: 6.00 Build 0)  -->
<svg version="1.1" id="Layer_1" xmlns="http://www.w3.org/2000/svg" xmlns:xlink="http://www.w3.org/1999/xlink" x="0px" y="0px"
	 viewBox="0 0 800 600" style="enable-background:new 0 0 800 600;" xml:space="preserve">
<style type="text/css">
	.st0{display:none;fill:#FFFFFF;}
	.st1{display:none;}
	.st2{display:inline;}
	.st3{fill:#FFFFFF;}
	.st4{fill:#0BA5EC;}
	.st5{fill:#03103D;}
</style>
<g>
	<g>
		<g>
			<path class="st3" d="M186.13,125.8c4.37,0,8.72-0.02,13.09-0.05c0.05,9.17,0,18.31,0.02,27.48
				c33.14,23.81,66.21,47.7,99.32,71.54c15.66-0.02,31.34,0,47-0.02c0,4.37,0,8.74,0,13.13c-24.93,0-49.86,0.07-74.78-0.03
				c-0.44,48.67-0.09,97.33-0.19,146c10.9,1.56,21.31,6.72,28.57,15.08c10.97,12.04,14.49,30.25,8.74,45.5
				c-6.17,17.34-23.74,29.88-42.2,29.79c-47.61,0.03-95.22,0.02-142.84,0c-30.98-0.14-61.66-12.5-84.15-33.75
				C17.63,420.89,3.84,393.91,0,365.43c46.2-0.34,92.4-0.02,138.6-0.15c8.06-19.44,26.68-33.7,47.53-36.46
				c-0.02-30.28-0.02-60.59,0.02-90.87c-18.28-0.12-36.56-0.02-54.86-0.05c-0.09,19.01-0.03,38.04-0.02,57.07
				c-12.09,0.02-24.2,0-36.29,0c0.02-19.03-0.02-38.04-0.02-57.07c-27.34,0.02-54.69-0.05-82.03,0.03
				c-0.05-4.37-0.07-8.76-0.1-13.13c24.64-0.09,49.28-0.03,73.9-0.02c33.14-23.86,66.27-47.71,99.39-71.57
				C186.11,144.07,186.11,134.93,186.13,125.8z M199.26,169.38c-0.03,18.47,0.03,36.93-0.03,55.4c25.64-0.03,51.28-0.05,76.93,0
				C250.52,206.3,224.86,187.87,199.26,169.38z M109.24,224.75c25.63,0.05,51.25-0.03,76.88,0.03c0.02-18.47-0.02-36.93,0-55.4
				C160.47,187.82,134.89,206.33,109.24,224.75z M199.29,237.89c-0.12,30.25,0.02,60.48-0.07,90.72
				c28.01,2.64,51.85,26.93,53.43,55.11c1.21-0.03,3.59-0.08,4.8-0.1c0.09-48.53-0.03-97.08,0.05-145.61
				C238.09,237.76,218.69,237.95,199.29,237.89z M99.97,237.89c0,7.67,0.02,15.35,0.02,23.02c8.74,0.02,17.48,0,26.22,0.02
				c0.05-7.69,0.02-15.35,0.02-23.02C117.47,237.88,108.73,237.89,99.97,237.89z M153.74,363.28c-6.31,9.71-7.6,21.54-6.99,32.85
				c-9.05,0.09-18.11-0.2-27.16,0.14c-13.2,0.63-25.17,10.29-29.03,22.84c-3.72,11.26-0.53,24.4,7.92,32.72
				c6.24,6.55,15.27,10.1,24.28,9.9c47.65,0,95.27,0.09,142.9-0.05c15.98,0.22,30.61-13.01,32.21-28.86
				c1.94-13.88-6.38-28.13-19.08-33.75c-12.19-5.08-25.8-2.16-38.63-2.91c0.44-10.51-0.34-21.53-5.78-30.81
				c-8.06-15.01-24.81-24.84-41.88-24.33C176.91,341.26,161.8,349.94,153.74,363.28z"/>
		</g>
		<path class="st3" d="M552.35,271.7c16.95-2.6,34.82-1.33,50.76,5.37c12.79,5.37,24.1,14.96,30.13,27.6
			c8.42,17.36,6.94,38.85-3.23,55.18c-14.2,23.16-35.85,40.15-54.72,59.24c-5.97,6.14-12.58,11.68-18.08,18.26
			c28.06,0.31,56.11,0.02,84.19,0.14c-0.07,11.44-0.05,22.87-0.03,34.31c-47.22,0-94.44,0.02-141.66,0
			c-0.02-10.13-0.05-20.27,0.02-30.4c23.84-21.83,47.48-43.89,71.16-65.86c9.1-9,19.04-17.85,24.4-29.72
			c5.56-12.28,3.15-29.01-8.67-36.75c-12.07-7.77-29.91-7.52-40.57,2.64c-6.12,5.83-8.28,14.45-8.54,22.65
			c-13.3,0-26.58,0.02-39.88,0c0.17-12.82,3.28-25.86,10.71-36.47C518.24,283.19,535.11,274.39,552.35,271.7z"/>
		<path class="st3" d="M338.45,273.09c13.76,0.03,27.53,0.05,41.29,0c0.1,34.54-0.12,69.09,0.1,103.64c0.26,0.9,0.73,2.74,0.97,3.66
			c16.58-18.91,32.56-38.33,48.77-57.56c15.85-0.1,31.71,0,47.58-0.03c-18.43,21.48-36.8,43-55.26,64.48
			c19.28,28.23,38.77,56.34,58.07,84.55c-16.21-0.12-32.41,0.17-48.62-0.17c-13.4-20.03-26.85-40.05-40.57-59.84
			c-3.62,4.27-7.33,8.47-11.05,12.67c0.05,15.76,0.05,31.54,0,47.32c-13.76,0.02-27.53-0.03-41.29,0.02
			C338.44,405.59,338.4,339.34,338.45,273.09z"/>
		<g>
			<path class="st3" d="M758.76,273.09c13.74,0.05,27.48,0.02,41.24,0c-0.05,66.25-0.02,132.48-0.02,198.73
				c-13.57-0.03-27.14-0.03-40.71,0c-0.09-8.11,0.09-16.24-0.09-24.35c-2.36,1.38-3.47,3.95-4.86,6.16
				c-5.48,9.22-14.71,16.05-25.06,18.81c-18.74,4.91-40.15-0.26-53.73-14.3c-13.31-13.43-19.08-32.53-20.39-51
				c-1.33-20.32,1.07-41.81,11.94-59.46c7.46-12.31,19.71-21.77,33.8-25.06c15.58-3.83,33.8-1.65,45.78,9.81
				c5.14,4.49,8.04,10.73,12.01,16.15C758.92,323.41,758.7,298.26,758.76,273.09z M718.53,355.33
				c-13.06,4.39-19.32,18.53-20.83,31.29c-1.68,15.34-0.68,32.61,9.4,45.11c9.71,12.12,29.94,12.87,40.71,1.8
				c8.67-8.69,11.29-21.49,11.75-33.33c0.31-12.72-1.41-26.49-9.66-36.7C742.58,354.37,729.35,351.67,718.53,355.33z"/>
		</g>
		<path class="st3" d="M12.26,279.71c11.46,0.03,22.92,0.02,34.38,0.02c0,11.46-0.02,22.94-0.02,34.4
			c-11.44-0.02-22.9,0.02-34.37-0.02C12.24,302.65,12.23,291.17,12.26,279.71z"/>
		<path class="st3" d="M54.46,279.69c11.46,0.05,22.92,0.05,34.38,0c0.03,11.48,0,22.96,0.05,34.43c-11.49,0-22.99,0-34.48-0.02
			C54.45,302.63,54.4,291.17,54.46,279.69z"/>
		<path class="st3" d="M12.26,321.91c11.46,0,22.92,0,34.37,0c0.03,11.46,0,22.92,0.03,34.38c-11.48,0-22.94-0.02-34.42,0.02
			C12.26,344.83,12.23,333.37,12.26,321.91z"/>
		<path class="st3" d="M54.4,321.91c11.49-0.02,22.97-0.02,34.47,0c0.02,11.46,0.02,22.92-0.02,34.4c-11.48-0.03-22.97-0.02-34.45,0
			C54.46,344.83,54.43,333.37,54.4,321.91z"/>
		<path class="st3" d="M96.6,321.93c11.46-0.05,22.94-0.02,34.42-0.02c-0.03,11.46,0.03,22.92-0.02,34.4
			c-11.48-0.05-22.96,0.03-34.43-0.07C96.64,344.8,96.58,333.37,96.6,321.93z"/>
	</g>
	<g>
		<path class="st4" d="M177.44,351.55c12.92-5.97,29.15-4.01,40.22,4.97c9.39,6.97,15.15,18.48,15.29,30.13
			c0.2,5.39,0.02,10.78-0.07,16.15c11.51,0.83,23.07-0.12,34.59,0.51c12.96,0.85,23.99,12.91,23.47,25.93
			c0.31,13.37-11.77,25.66-25.22,25.12c-48.24,0.07-96.47,0.05-144.71,0c-13.26,0.27-25.17-11.87-24.71-25.1
			c-0.8-13.62,11.38-25.76,24.78-26.08c10.98-0.26,21.99,0.2,32.99-0.19c0.03-7.41-0.39-14.86,0.51-22.24
			C156.64,368.01,165.62,356.7,177.44,351.55z"/>
	</g>
</g>
</svg>
